<?xml version="1.0"?>
<svg width="128" height="128" xmlns="http://www.w3.org/2000/svg" xmlns:svg="http://www.w3.org/2000/svg">
 <g class="layer">
  <title>Layer 1</title>
  <g fill="#47848f" id="svg_1">
   <path d="m52.72234,26.5053c-9.41092,-1.71584 -16.84404,0.07859 -19.81074,5.2392c-2.21356,3.83117 -1.57831,8.91319 1.53247,14.34232a0.9627,0.9627 0 0 0 1.67655,-0.9627c-2.80297,-4.89211 -3.35309,-9.27994 -1.53902,-12.44311c2.46243,-4.2634 9.09657,-5.8941 17.79364,-4.28305a0.9627,0.9627 0 1 0 0.3471,-1.89921l0,0.00655zm-13.38616,26.16327a60.38182,60.38182 0 0 0 14.40781,11.35597c13.64812,7.85881 28.16072,9.98723 35.36462,5.10167a0.9627,0.9627 0 0 0 -1.08713,-1.59141c-6.45732,4.38128 -20.28227,2.36419 -33.33443,-5.18681a58.46296,58.46296 0 0 1 -13.92318,-10.98268a0.9627,0.9627 0 0 0 -1.42768,1.3098l0,-0.00655l-0.00001,0.00001z" id="svg_2"/>
   <path d="m86.77061,51.48975c6.16261,-7.27594 8.31069,-14.59773 5.35054,-19.71905c-2.17427,-3.77223 -6.77822,-5.76312 -12.89499,-5.84171a0.9627,0.9627 0 0 0 0,1.93196c5.50116,0.07204 9.46331,1.78788 11.25119,4.87901c2.45588,4.25685 0.53702,10.78621 -5.15407,17.51204a0.9627,0.9627 0 1 0 1.47353,1.24431l-0.0262,-0.00655l0,-0.00001zm-15.82894,-24.66355a60.25084,60.25084 0 0 0 -17.19114,6.81096c-14.08691,8.15351 -23.28171,20.13164 -22.03085,28.82872a0.9627,0.9627 0 0 0 1.9647,-0.28161c-1.15917,-7.72128 7.551,-19.0838 21.02885,-26.87056a58.33198,58.33198 0 0 1 16.63447,-6.62104a0.9627,0.9627 0 1 0 -0.40604,-1.88611l0,0.01965l0.00001,-0.00001z" id="svg_3"/>
   <path d="m48.09219,68.49751c3.2745,8.99178 8.51371,14.55189 14.44055,14.55189c4.32234,0 8.31724,-2.94705 11.43456,-8.13386a0.9627,0.9627 0 1 0 -1.6438,-1.03474c-2.80297,4.66289 -6.2412,7.2039 -9.78421,7.2039c-4.92485,0 -9.62049,-4.93795 -12.60028,-13.25518a0.9627,0.9627 0 0 0 -1.81407,0.6549l-0.03275,0.0131l0,-0.00001zm29.47052,-1.76168a60.57829,60.57829 0 0 0 2.56066,-17.87878c0,-15.98612 -5.59285,-29.75868 -13.56299,-33.30169a0.9627,0.9627 0 0 0 -0.78588,1.76823c7.10567,3.15662 12.44311,16.22843 12.44311,31.53346a58.65943,58.65943 0 0 1 -2.47552,17.30247a0.9627,0.9627 0 0 0 1.84027,0.57631l-0.01965,0zm18.14729,-0.94306a4.61705,4.61705 0 1 0 -4.61705,4.61705a4.61705,4.61705 0 0 0 4.61705,-4.61705zm-1.93196,0a2.68509,2.68509 0 1 1 -2.68509,-2.68509a2.68509,2.68509 0 0 1 2.68509,2.68509zm-59.871,4.61705a4.61705,4.61705 0 1 0 -4.61705,-4.61705a4.61705,4.61705 0 0 0 4.61705,4.61705zm0,-1.93196a2.68509,2.68509 0 1 1 2.68509,-2.68509a2.68509,2.68509 0 0 1 -2.68509,2.68509z" id="svg_4"/>
   <path d="m62.53275,20.2641a4.61705,4.61705 0 1 0 -4.61705,-4.61705a4.61705,4.61705 0 0 0 4.61705,4.61705zm0,-1.93196a2.68509,2.68509 0 1 1 2.68509,-2.68509a2.68509,2.68509 0 0 1 -2.68509,2.68509zm0.70729,33.78631a3.33999,3.33999 0 1 1 2.53446,-3.9687a3.33999,3.33999 0 0 1 -2.53446,3.9687z" id="svg_5"/>
  </g>
  <text fill="#47848f" font-family="Courier" font-size="24" font-weight="bold" id="svg_6" stroke="#000000" stroke-width="0" text-anchor="middle" x="63.35814" xml:space="preserve" y="105.22169">ELECTRON</text>
 </g>
</svg>