<svg width="128" height="128" xmlns="http://www.w3.org/2000/svg" xmlns:svg="http://www.w3.org/2000/svg">
 <g class="layer">
  <title>Layer 1</title>
  <path d="m108.67,66.09855c-3.2506,0.82691 -5.26083,0.03564 -7.06434,-2.67319c-4.04899,-6.06635 -8.51856,-11.8547 -12.8313,-17.74996c-0.55602,-0.76275 -1.13343,-1.51124 -1.85341,-2.45933c-5.10401,6.88613 -10.20088,13.44435 -14.98411,20.26632c-1.71084,2.43795 -3.50722,3.50009 -6.70079,2.63754l19.18992,-25.75527l-17.86402,-23.26029c3.07238,-0.59879 5.19668,-0.29227 7.0786,2.45933c4.15592,6.07348 8.73954,11.8547 13.30891,17.97095c4.59788,-6.09487 9.12448,-11.88321 13.40158,-17.89966c1.71797,-2.43795 3.56425,-3.36465 6.65089,-2.46646c-2.33815,3.1009 -4.6264,6.1519 -6.9289,9.18151c-3.10803,4.08463 -6.15902,8.21916 -9.38111,12.21825c-1.14769,1.4257 -0.96235,2.3524 0.06416,3.69969c5.95943,7.83422 11.84757,15.74686 17.91392,23.83057zm-89.34862,-26.16159c0.51325,-2.57339 0.85542,-5.19668 1.56827,-7.72017c4.2771,-15.27637 21.81321,-21.62787 33.86037,-12.16122c7.05721,5.5531 8.81083,13.38019 8.46153,22.20528l-39.77703,0c-0.59879,15.8324 10.79968,25.39172 25.32756,20.51582c5.09688,-1.71084 8.09798,-5.7028 9.60209,-10.69275c0.76275,-2.5021 2.02449,-2.89417 4.3769,-2.18132c-1.20472,6.24457 -3.93493,11.46263 -9.63773,14.72748c-8.5542,4.89015 -20.76532,3.30762 -27.1881,-3.48584c-3.79236,-3.99196 -5.4034,-8.96052 -6.11625,-14.32828c-0.10693,-0.85542 -0.32791,-1.69658 -0.49899,-2.54487q0.02139,-2.16706 0.02139,-4.33413zm4.18443,-1.06215l35.94902,0c-0.23524,-11.44837 -7.36374,-19.58199 -17.1084,-19.65327c-10.69275,-0.08554 -18.37727,7.85561 -18.84062,19.65327z" id="svg_1"/>
  <text fill="#000000" font-family="Cursive" font-size="25" id="svg_2" stroke-width="0" text-anchor="middle" transform="matrix(0.967375 0 0 0.967375 -2.21309 1.33014)" x="68.44635" xml:space="preserve" y="100.02116">Express.js</text>
 </g>
</svg>