<svg width="128" height="128" xmlns="http://www.w3.org/2000/svg" xmlns:svg="http://www.w3.org/2000/svg">
 <defs>
  <linearGradient id="tailwindcss-original-wordmark-a" x1="-0.02677" x2="1.00142" y1="0.31706" y2="0.67201">
   <stop offset="0" stop-color="#2298bd"/>
   <stop offset="1" stop-color="#0ed7b5"/>
  </linearGradient>
 </defs>
 <g class="layer">
  <title>Layer 1</title>
  <path d="m63.73295,14.074c-11.93149,0 -19.36839,6.01309 -22.32758,17.92767c4.4777,-5.99618 9.72308,-8.20459 15.64149,-6.68609c3.38195,0.84548 5.84061,3.30416 8.53265,6.09088c4.39991,4.4777 9.47283,9.64529 20.55883,9.64529c11.91458,0 19.35147,-6.01309 22.31067,-17.92767c-4.4777,5.99618 -9.72308,8.20459 -15.64149,6.68609c-3.38195,-0.84548 -5.8237,-3.30416 -8.53265,-6.09088c-4.39991,-4.4777 -9.47283,-9.64529 -20.54192,-9.64529zm-22.40537,26.80528c-11.93149,0 -19.36839,5.99618 -22.32758,17.9243c4.4777,-6.00971 9.72308,-8.20121 15.64149,-6.68273c3.38195,0.84548 5.84061,3.30416 8.53265,6.09088c4.39991,4.4777 9.47283,9.64529 20.55883,9.64529c11.91458,0 19.35147,-6.01309 22.31067,-17.92767c-4.4777,5.99618 -9.72308,8.20459 -15.64149,6.6692c-3.38195,-0.84548 -5.8237,-3.28725 -8.53265,-6.07396c-4.32213,-4.49459 -9.39504,-9.64529 -20.54192,-9.64529l0,-0.00002zm0,0" fill="url(#tailwindcss-original-wordmark-a)" id="svg_1"/>
  <path d="m13.85212,98.56456c0,1.9959 1.28677,1.9493 3.82868,1.82611l0,2.99803c-5.1604,0.62424 -7.19625,-0.79404 -7.19625,-4.82414l0,-7.45261l-2.83655,0l0,-3.20611l2.83655,0l0,-4.16161l3.32929,-0.99379l0,5.15541l3.82202,0l0,3.20611l-3.78374,7.45261zm18.4792,-10.65872l3.32929,0l0,15.48285l-3.32929,0l0,-2.2506c-1.17024,1.62636 -2.99636,2.62847 -5.4101,2.62847c-4.20655,0 -7.69732,-3.58398 -7.69732,-8.16175c0,-4.61606 3.49075,-8.15342 7.69897,-8.15342c2.41207,0 4.23818,0.99379 5.4101,2.62015l-0.00167,-2.16571l0.00001,0zm-4.91569,12.6929c2.78994,0 4.91736,-2.08081 4.91736,-4.94732c0,-2.87485 -2.12741,-4.95564 -4.91736,-4.95564c-2.78161,0 -4.90903,2.08081 -4.90903,4.95564c0.04661,2.86652 2.12741,4.94732 4.9107,4.94732l-0.00167,0zm13.81821,-15.02009c-1.16358,0 -2.11908,-1.00211 -2.11908,-2.12741c0,-1.16358 0.9555,-2.11908 2.11908,-2.11908c1.16525,0 2.12741,0.9555 2.12741,2.11908c0.03829,1.12531 -0.96383,2.12741 -2.12741,2.12741zm-1.66464,17.81001l0,-15.48118l3.32929,0l0,15.48118l-3.32929,0zm7.19792,0l0,-22.59588l3.32929,0l0,22.59588l-3.32929,0zm25.10116,-15.48118l3.53736,0l-4.87075,15.48118l-3.291,0l-3.20611,-10.44231l-3.24439,10.44231l-3.28268,0l-4.87075,-15.48118l3.53571,0l2.99636,10.69533l3.24606,-10.697l3.20611,0l3.19778,10.697l3.0463,-10.69533zm7.65236,-2.33051c-1.16358,0 -2.11908,-0.99879 -2.11908,-2.12575c0,-1.16358 0.9555,-2.11908 2.11908,-2.11908c1.16525,0 2.12741,0.9555 2.12741,2.11908c0.03829,1.12531 -0.91722,2.12741 -2.12741,2.12741l0,-0.00167zm-1.66464,17.81168l0,-15.48118l3.32929,0l0,15.48118l-3.32929,0zm15.35966,-15.89734c3.45247,0 5.94943,2.37212 5.94943,6.36393l0,9.53341l-3.32929,0l0,-9.15554c0,-2.37378 -1.37167,-3.57565 -3.45247,-3.57565c-2.20399,0 -3.95353,1.28677 -3.95353,4.44627l0,8.32322l-3.32929,0l0,-15.47453l3.32929,0l0,1.9959c1.0404,-1.66464 2.70504,-2.45868 4.78585,-2.45868l0,0.00167l0.00001,0zm21.84844,-5.78131l3.32929,0l0,21.67865l-3.32929,0l0,-2.2506c-1.16525,1.62636 -2.99803,2.62847 -5.4101,2.62847c-4.20822,0 -7.69897,-3.58398 -7.69897,-8.16175c0,-4.61606 3.49075,-8.15342 7.69897,-8.15342c2.41207,0 4.24484,0.99379 5.4101,2.62015l0,-8.3615l0,-0.00001zm-4.9107,18.88871c2.78328,0 4.9107,-2.08081 4.9107,-4.94732c0,-2.87485 -2.12741,-4.95564 -4.9107,-4.95564c-2.78827,0 -4.91569,2.08081 -4.91569,4.95564c0,2.86652 2.12741,4.94732 4.91736,4.94732l-0.00167,0z" fill="#47848f" id="svg_2"/>
 </g>
</svg>